<?xml version="1.0" encoding="UTF-8" standalone="no"?>
<!-- Created with Inkscape (http://www.inkscape.org/) -->

<svg
   xmlns:dc="http://purl.org/dc/elements/1.1/"
   xmlns:cc="http://creativecommons.org/ns#"
   xmlns:rdf="http://www.w3.org/1999/02/22-rdf-syntax-ns#"
   xmlns:svg="http://www.w3.org/2000/svg"
   xmlns="http://www.w3.org/2000/svg"
   xmlns:sodipodi="http://sodipodi.sourceforge.net/DTD/sodipodi-0.dtd"
   xmlns:inkscape="http://www.inkscape.org/namespaces/inkscape"
   width="744.09448819"
   height="1052.3622047"
   id="svg2"
   version="1.1"
   inkscape:version="0.48.4 r9939"
   sodipodi:docname="New document 1">
  <defs
     id="defs4" />
  <sodipodi:namedview
     id="base"
     pagecolor="#ffffff"
     bordercolor="#666666"
     borderopacity="1.0"
     inkscape:pageopacity="0.0"
     inkscape:pageshadow="2"
     inkscape:zoom="0.35"
     inkscape:cx="334.90438"
     inkscape:cy="368.57143"
     inkscape:document-units="px"
     inkscape:current-layer="layer1"
     showgrid="false"
     inkscape:window-width="704"
     inkscape:window-height="690"
     inkscape:window-x="214"
     inkscape:window-y="35"
     inkscape:window-maximized="0" />
  <metadata
     id="metadata7">
    <rdf:RDF>
      <cc:Work
         rdf:about="">
        <dc:format>image/svg+xml</dc:format>
        <dc:type
           rdf:resource="http://purl.org/dc/dcmitype/StillImage" />
        <dc:title></dc:title>
      </cc:Work>
    </rdf:RDF>
  </metadata>
  <g
     inkscape:label="Layer 1"
     inkscape:groupmode="layer"
     id="layer1">
    <path
       style="fill:none;stroke:#000000;stroke-width:1px;stroke-linecap:butt;stroke-linejoin:miter;stroke-opacity:1"
       d="m 0,795.21933 c 665.71429,5.71428 665.71429,5.71428 665.71429,5.71428 l 0,0"
       id="path2999"
       inkscape:connector-curvature="0" />
    <path
       style="fill:none;stroke:#000000;stroke-width:1px;stroke-linecap:butt;stroke-linejoin:miter;stroke-opacity:1"
       d="M -174.28571,846.6479 z"
       id="path3001"
       inkscape:connector-curvature="0" />
    <path
       style="fill:none;stroke:#000000;stroke-width:1px;stroke-linecap:butt;stroke-linejoin:miter;stroke-opacity:1"
       d="m 680,800.93361 c 13.33333,0 26.66667,0 40,0"
       id="path3021"
       inkscape:connector-curvature="0" />
    <path
       style="fill:none;stroke:#000000;stroke-width:1px;stroke-linecap:butt;stroke-linejoin:miter;stroke-opacity:1"
       d="m 705.71429,803.79075 c 0,4.76191 0,9.52381 0,14.28572 0,0.95238 0,1.90476 0,2.85714 0,0.95238 0.67343,2.18371 0,2.85714 -0.67344,0.67344 -2.18371,-0.67343 -2.85715,0 -0.67343,0.67344 0,1.90477 0,2.85715 0,0.95238 -0.67343,2.1837 0,2.85714 0.67344,0.67343 2.85715,-0.95238 2.85715,0 0,0.95238 -3.80953,0 -2.85715,0 16.19048,0 0.95238,-1.90476 5.71429,2.85714 1.34687,1.34687 4.36741,-1.34687 5.71428,0 0.67344,0.67344 -0.67343,2.18371 0,2.85715 1.34687,1.34687 5.71429,-1.90477 5.71429,0 0,0.95238 -3.80952,0 -2.85714,0 1.90476,0 3.80952,0 5.71428,0 0.95238,0 2.18371,0.67343 2.85715,0 0.67343,-0.67344 0,-1.90477 0,-2.85715"
       id="path3023"
       inkscape:connector-curvature="0" />
    <path
       style="fill:none;stroke:#000000;stroke-width:1px;stroke-linecap:butt;stroke-linejoin:miter;stroke-opacity:1"
       d="m 245.71429,795.21933 c 0,48.57142 0,48.57142 0,48.57142 l 0,0 0,0"
       id="path3045"
       inkscape:connector-curvature="0" />
    <path
       style="fill:none;stroke:#000000;stroke-width:1px;stroke-linecap:butt;stroke-linejoin:miter;stroke-opacity:1"
       d="m 500,800.93361 c 0,42.85714 0,42.85714 0,42.85714"
       id="path3059"
       inkscape:connector-curvature="0" />
    <path
       style="fill:none;stroke:#000000;stroke-width:1px;stroke-linecap:butt;stroke-linejoin:miter;stroke-opacity:1"
       d="m 222.85714,858.07647 c 6.66667,0 13.33334,0 20,0 0.95238,0 2.85715,-0.95238 2.85715,0 0,0.95238 -3.80953,0 -2.85715,0 1.90476,0 3.80953,0 5.71429,0 0.95238,0 2.18371,0.67343 2.85714,0 0.67344,-0.67344 -0.67343,-2.18371 0,-2.85714 0.67344,-0.67344 1.90476,0 2.85714,0 0.95239,0 3.80953,0 2.85715,0 -1.90476,0 -7.61905,0 -5.71429,0 3.80953,0 7.61905,0 11.42857,0 0.95238,0 3.80953,0 2.85715,0 -1.90477,0 -3.80953,0 -5.71429,0"
       id="path3061"
       inkscape:connector-curvature="0" />
    <path
       style="fill:none;stroke:#000000;stroke-width:1px;stroke-linecap:butt;stroke-linejoin:miter;stroke-opacity:1"
       d="m 245.71429,866.6479 c 0,7.61904 0,15.23809 0,22.85714 0,0.95238 -0.67344,2.18371 0,2.85714 0.67343,0.67344 2.1837,-0.67343 2.85714,0 0.67343,0.67344 -0.67344,2.18371 0,2.85715 0.11497,0.11497 10.37932,0 11.42857,0"
       id="path3063"
       inkscape:connector-curvature="0" />
    <path
       style="fill:none;stroke:#000000;stroke-width:1px;stroke-linecap:butt;stroke-linejoin:miter;stroke-opacity:1"
       d="m 480,855.21933 c -0.81701,-13.46871 10.91854,3.36717 14.28571,0 0.67344,-0.67344 -0.67343,-2.18371 0,-2.85715 0.67344,-0.67343 2.85715,-0.95238 2.85715,0 0,0.95238 -3.80953,0 -2.85715,0 11.04617,0 11.73816,0 17.14286,0 5.71429,0 11.42857,0 17.14286,0 0.95238,0 2.85714,-0.95238 2.85714,0 0,0.95238 -1.90476,0 -2.85714,0"
       id="path3065"
       inkscape:connector-curvature="0" />
    <path
       style="fill:none;stroke:#000000;stroke-width:1px;stroke-linecap:butt;stroke-linejoin:miter;stroke-opacity:1"
       d="m 502.85714,860.93361 c 0,4.76191 0,9.52381 0,14.28572 0,0.95238 0.67344,2.1837 0,2.85714 -0.67343,0.67343 -2.1837,-0.67344 -2.85714,0 -0.28571,0.28571 -0.28571,8.28571 0,8.57143 0.67344,0.67343 2.18371,-0.67344 2.85714,0 0.67344,0.67343 -0.67343,2.1837 0,2.85714 0.28572,0.28571 8.28572,0.28571 8.57143,0 0.67344,-0.67344 -0.67343,-2.18371 0,-2.85714 0.0919,-0.0919 7.8785,0 8.57143,0"
       id="path3067"
       inkscape:connector-curvature="0" />
    <path
       style="fill:none;stroke:#000000;stroke-width:1px;stroke-linecap:butt;stroke-linejoin:miter;stroke-opacity:1"
       d="m 537.14286,880.93361 c 0,9.52381 0,19.04762 0,28.57143"
       id="path3069"
       inkscape:connector-curvature="0" />
    <path
       style="fill:none;stroke:#000000;stroke-width:1px;stroke-linecap:butt;stroke-linejoin:miter;stroke-opacity:1"
       d="m 277.14286,886.6479 c 5.71428,0 11.42857,0 17.14285,0 0.95239,0 3.80953,0 2.85715,0 -1.90476,0 -5.71429,-1.90477 -5.71429,0 0,2.12959 4.20844,1.35129 5.71429,2.85714 0.67343,0.67343 0.95238,2.85714 0,2.85714 -4.04762,0 8.09524,-13.33333 0,2.85715 -0.42592,0.85183 -2.18371,-0.67344 -2.85715,0 -0.67343,0.67343 0.67344,2.1837 0,2.85714 -1.34687,1.34687 -4.36741,-1.34687 -5.71428,0 -0.67344,0.67343 0.67343,2.18371 0,2.85714 -1.34687,1.34687 -4.36742,-1.34687 -5.71429,0 -0.67343,0.67344 0.67344,2.18371 0,2.85714 -1.42857,1.42858 -7.14285,-1.42857 -8.57143,0 -0.67343,0.67344 0.95239,2.85715 0,2.85715 -0.95238,0 -0.95238,-2.85715 0,-2.85715 1.34687,0 1.65247,2.25481 2.85715,2.85715 0.85183,0.42591 2.85714,-0.95238 2.85714,0 0,0.95238 -3.80952,0 -2.85714,0 2.85714,0 5.71428,0 8.57143,0 0.95238,0 2.1837,0.67343 2.85714,0 0.67343,-0.67344 -0.67344,-2.18371 0,-2.85715 1.42857,-1.42857 7.14286,1.42858 8.57143,0 0.67343,-0.67343 -0.95238,-2.85714 0,-2.85714 0.95238,0 -0.95238,2.85714 0,2.85714 1.34687,0 1.65246,-2.2548 2.85714,-2.85714 0.85184,-0.42592 2.85714,-0.95238 2.85714,0 0,0.95238 -1.90476,0 -2.85714,0"
       id="path3071"
       inkscape:connector-curvature="0" />
    <path
       style="fill:none;stroke:#000000;stroke-width:1px;stroke-linecap:butt;stroke-linejoin:miter;stroke-opacity:1"
       d="m 248.57143,400.93361 c -2.85714,394.28572 -2.85714,394.28572 -2.85714,394.28572 l 0,0 -2.85715,-5.71429"
       id="path3077"
       inkscape:connector-curvature="0" />
    <path
       style="fill:none;stroke:#000000;stroke-width:1px;stroke-linecap:butt;stroke-linejoin:miter;stroke-opacity:1"
       d="M -240,1235.2193 z"
       id="path3079"
       inkscape:connector-curvature="0" />
    <path
       style="fill:#0000ff;stroke:#000000;stroke-width:1px;stroke-linecap:butt;stroke-linejoin:miter;stroke-opacity:1"
       d="m 497.14286,398.07647 c 0,394.28571 0,400 0,400"
       id="path3081"
       inkscape:connector-curvature="0" />
    <path
       style="fill:none;stroke:#000000;stroke-width:1px;stroke-linecap:butt;stroke-linejoin:miter;stroke-opacity:1"
       d="m 245.71429,403.79075 c 0,391.42858 0,391.42858 0,391.42858"
       id="path3083"
       inkscape:connector-curvature="0" />
    <path
       style="fill:#0000ff;stroke:#000000;stroke-width:1px;stroke-linecap:butt;stroke-linejoin:miter;stroke-opacity:1"
       d="M 514.28571,1243.7908 z"
       id="path3085"
       inkscape:connector-curvature="0" />
    <path
       style="fill:none;stroke:#000000;stroke-width:1px;stroke-linecap:butt;stroke-linejoin:miter;stroke-opacity:1"
       d="m 248.57143,298.07647 c -3.80953,0.95238 -10.47619,6.66666 -11.42857,2.85714 -0.95238,-3.80952 14.20521,-5.63379 11.42857,-2.85714 -0.1688,0.1688 -14.69485,3.6754 -17.14286,8.57143 -0.85183,1.70367 0.85184,4.01061 0,5.71428 -0.60234,1.20468 -2.2548,1.65247 -2.85714,2.85715 -0.56642,1.13283 0.5841,7.98732 0,8.57142 -0.67344,0.67344 -2.18371,-0.67343 -2.85714,0 -0.1295,0.12949 0,12.93858 0,14.28572 0,0.95238 -0.67344,2.18371 0,2.85714 0.67343,0.67344 2.1837,-0.67343 2.85714,0 0.67343,0.67344 0,1.90476 0,2.85714 0,1.34714 -0.12949,14.15623 0,14.28572 0.67343,0.67343 2.18371,-0.67344 2.85714,0 0.67344,0.67343 0,1.90476 0,2.85714 0,4.76191 0,9.52381 0,14.28572 0,0.95238 0.67344,2.1837 0,2.85714 -0.67343,0.67343 -2.18371,-0.67344 -2.85714,0 -0.67344,0.67343 0.67343,2.18371 0,2.85714 -0.67344,0.67344 -1.90476,0 -2.85714,0 -0.95239,0 -1.90477,0 -2.85715,0"
       id="path3859"
       inkscape:connector-curvature="0" />
    <path
       style="fill:none;stroke:#000000;stroke-width:1px;stroke-linecap:butt;stroke-linejoin:miter;stroke-opacity:1"
       d="m 202.85714,338.07647 c 7.16888,-3.12399 12.83591,-2.85714 20,-2.85714 0.95238,0 3.80953,0 2.85715,0 -1.90477,0 -7.61905,0 -5.71429,0 2.85714,0 5.71429,0 8.57143,0 0.95238,0 2.18371,-0.67344 2.85714,0 0.67344,0.67343 -0.67343,2.1837 0,2.85714 0.67344,0.67343 1.90476,0 2.85714,0 0.95239,0 1.90477,0 2.85715,0 0.95238,0 1.90476,0 2.85714,0 0.95238,0 2.85714,-0.95238 2.85714,0 0,0.95238 -3.80952,0 -2.85714,0 1.90476,0 3.80952,0 5.71429,0"
       id="path3861"
       inkscape:connector-curvature="0" />
    <path
       style="fill:none;stroke:#000000;stroke-width:1px;stroke-linecap:butt;stroke-linejoin:miter;stroke-opacity:1"
       d="m 251.42857,363.79075 c 2.85714,3.80953 6.12145,7.34528 8.57143,11.42858 0.49,0.81666 0,1.90476 0,2.85714 0,0.95238 0.67344,2.18371 0,2.85714 -0.67344,0.67344 -2.18371,-0.67343 -2.85714,0 -0.67344,0.67344 0.67343,2.18371 0,2.85714 -1.34687,1.34687 -4.36742,-1.34687 -5.71429,0 -0.67343,0.67344 0.67344,2.18371 0,2.85715 -0.67343,0.67343 -2.18371,-0.67344 -2.85714,0 -0.67344,0.67343 0.67343,2.1837 0,2.85714 -0.67344,0.67343 -2.85714,0.95238 -2.85714,0 0,-0.95238 1.90476,0 2.85714,0 1.90476,0 3.80952,0 5.71428,0 0.95239,0 3.80953,0 2.85715,0 -1.90476,0 -7.61905,0 -5.71429,0 3.80953,0 7.61905,0 11.42857,0 0.95238,0 1.90476,0 2.85715,0 0.95238,0 2.85714,-0.95238 2.85714,0 0,0.95238 -1.90476,0 -2.85714,0"
       id="path3863"
       inkscape:connector-curvature="0" />
    <path
       style="fill:none;stroke:#000000;stroke-width:1px;stroke-linecap:butt;stroke-linejoin:miter;stroke-opacity:1"
       d="m 497.14286,298.07647 c -3.80953,0 -11.42857,3.80952 -11.42857,0 0,-3.80953 14.12231,-2.69374 11.42857,0 -3.43386,3.43386 -9.77684,1.05359 -14.28572,2.85714 -1.76852,0.70741 1.34687,4.36742 0,5.71429 -0.67343,0.67343 -2.1837,-0.67344 -2.85714,0 -1.42857,1.42857 1.42857,7.14285 0,8.57143 -0.67344,0.67343 -2.18371,-0.67344 -2.85714,0 -0.68752,0.68751 0.68751,10.74105 0,11.42857 -0.67344,0.67343 -2.18371,-0.67344 -2.85715,0 -0.12949,0.12949 0,12.93857 0,14.28571 0,0.95238 -0.67343,2.18371 0,2.85714 0.67344,0.67344 2.18371,-0.67343 2.85715,0 0.67343,0.67344 0,1.90477 0,2.85715 0,0.95238 0,1.90476 0,2.85714 0,7.61905 0,15.23809 0,22.85714 0,0.95238 0.67343,2.18371 0,2.85715 -0.67344,0.67343 -2.18371,-0.67344 -2.85715,0 -0.67343,0.67343 0.67344,2.1837 0,2.85714 -0.67343,0.67343 -1.90476,0 -2.85714,0 -0.95238,0 -1.90476,0 -2.85714,0"
       id="path3865"
       inkscape:connector-curvature="0" />
    <path
       style="fill:none;stroke:#000000;stroke-width:1px;stroke-linecap:butt;stroke-linejoin:miter;stroke-opacity:1"
       d="m 451.42857,340.93361 c 3.80953,-0.95238 7.57806,-2.08704 11.42857,-2.85714 1.42878,-0.28576 11.01792,0.41065 11.42857,0 0.67344,-0.67344 -0.67343,-2.18371 0,-2.85714 0.1295,-0.1295 12.93858,0 14.28572,0 0.95238,0 10.47619,0 2.85714,0"
       id="path3867"
       inkscape:connector-curvature="0" />
    <path
       style="fill:none;stroke:#000000;stroke-width:1px;stroke-linecap:butt;stroke-linejoin:miter;stroke-opacity:1"
       d="M 497.14286,360.93361 C 500.79276,370.34306 500,379.72439 500,389.50504"
       id="path3873"
       inkscape:connector-curvature="0" />
    <path
       style="fill:none;stroke:#000000;stroke-width:1px;stroke-linecap:butt;stroke-linejoin:miter;stroke-opacity:1"
       d="m 940,612.36218 2.85714,-2.85714"
       id="path3875"
       inkscape:connector-curvature="0" />
    <path
       style="fill:none;stroke:#000000;stroke-width:1px;stroke-linecap:butt;stroke-linejoin:miter;stroke-opacity:1"
       d="m 668.57143,795.21933 c 0,-651.42858 0,-651.42858 0,-651.42858 l 0,0 0,0 c -3.80952,1.90476 -7.61905,3.80953 -11.42857,5.71429 0,0.95238 0.67343,2.18371 0,2.85714 -0.67344,0.67344 -2.18371,-0.67343 -2.85715,0 -0.67343,0.67344 0.67344,2.18371 0,2.85715 -0.67343,0.67343 -2.1837,-0.67344 -2.85714,0 -0.67343,0.67343 0.67344,2.1837 0,2.85714 -0.67343,0.67343 -2.18371,-0.67344 -2.85714,0 -0.67344,0.67343 0.67343,2.18371 0,2.85714 -1.34687,1.34687 -4.36742,-1.34687 -5.71429,0 -0.67343,0.67344 0.67344,2.18371 0,2.85714 C 639.04762,167.60028 640,159.02885 640,166.6479"
       id="path3877"
       inkscape:connector-curvature="0" />
    <path
       style="fill:none;stroke:#000000;stroke-width:1px;stroke-linecap:butt;stroke-linejoin:miter;stroke-opacity:1"
       d="m 665.71429,143.79075 c -0.81702,13.4687 10.91853,-3.36717 14.28571,0 0.67344,0.67344 -0.67344,2.18371 0,2.85715 0.67344,0.67343 2.18371,-0.67344 2.85714,0 0.67344,0.67343 -0.67343,2.1837 0,2.85714 5.73135,5.73134 -0.017,-5.73134 5.71429,0 0.67343,0.67343 -0.67344,2.18371 0,2.85714 0.67343,0.67344 2.18371,-0.67343 2.85714,0 0.67344,0.67344 -0.67343,2.18371 0,2.85715 0.67344,0.67343 2.18371,-0.67344 2.85714,0 1.42858,1.42857 -1.42857,7.14285 0,8.57142 0.67344,0.67344 2.18371,-0.67343 2.85715,0 3.80952,3.80953 -4.76191,2.85715 2.85714,2.85715"
       id="path3879"
       inkscape:connector-curvature="0" />
    <text
       xml:space="preserve"
       style="font-size:40px;font-style:normal;font-weight:normal;line-height:125%;letter-spacing:0px;word-spacing:0px;fill:#000000;fill-opacity:1;stroke:none;font-family:Sans"
       x="648.57141"
       y="129.50504"
       id="text3881"
       sodipodi:linespacing="125%"><tspan
         sodipodi:role="line"
         id="tspan3883"
         x="648.57141"
         y="129.50504" /></text>
    <path
       style="fill:none;stroke:#000000;stroke-width:1px;stroke-linecap:butt;stroke-linejoin:miter;stroke-opacity:1"
       d="m -354.28571,1412.3622 2.85714,2.8571"
       id="path3887"
       inkscape:connector-curvature="0" />
    <path
       style="fill:none;stroke:#000000;stroke-width:1px;stroke-linecap:butt;stroke-linejoin:miter;stroke-opacity:1"
       d="m 625.71429,149.50504 c 0,-0.95238 0,-1.90476 0,-2.85714 0,-0.95238 -0.67344,-2.18371 0,-2.85715 0.67343,-0.67343 2.1837,0.67344 2.85714,0 0.8847,-0.8847 -0.88471,-13.401 0,-14.28571 0.67343,-0.67344 2.18371,0.67343 2.85714,0 0.68752,-0.68752 -0.68752,-10.74105 0,-11.42857 0.67344,-0.67344 2.18371,0.67343 2.85714,0 0.0919,-0.0919 0,-7.8785 0,-8.57143 0,-1.90476 0,-3.80952 0,-5.71429 0,-0.95238 -0.95238,2.85715 0,2.85715 0.33614,0 -0.42016,-8.151264 0,-8.571432 0.67344,-0.673435 2.18371,0.673435 2.85715,0 3.36717,-3.367175 -13.4687,-15.102728 0,-14.285714 5.71428,0.952381 11.40797,2.037874 17.14285,2.857143 0.94281,0.134687 2.00531,0.425918 2.85715,0 0.74385,-0.371928 3.48078,-5.090646 5.71428,-2.857143 0.0919,0.09189 0,7.878495 0,8.571429 0,0.692933 0.0919,8.479547 0,8.571427 -0.67343,0.67344 -2.1837,-0.67343 -2.85714,0 -0.67344,0.67344 0.42592,2.00531 0,2.85714 -0.60234,1.20468 -2.2548,1.65247 -2.85714,2.85715 -0.42592,0.85183 0.67343,2.1837 0,2.85714 -0.67344,0.67343 -2.18371,-0.67344 -2.85715,0 -0.67343,0.67343 0.67344,2.18371 0,2.85714 -1.34687,1.34687 -4.36741,-1.34687 -5.71428,0 -0.67344,0.67344 0.67343,2.18371 0,2.85715 -1.42857,1.42857 -7.14286,-1.42858 -8.57143,0 -3.80952,3.80952 4.7619,2.85714 -2.85714,2.85714"
       id="path3895"
       inkscape:connector-curvature="0" />
    <path
       style="fill:none;stroke:#000000;stroke-width:1px;stroke-linecap:butt;stroke-linejoin:miter;stroke-opacity:1"
       d="m 837.14286,338.07647 2.85714,0"
       id="path3897"
       inkscape:connector-curvature="0" />
    <path
       style="fill:none;stroke:#000000;stroke-width:1px;stroke-linecap:butt;stroke-linejoin:miter;stroke-opacity:1"
       d="M 5.7142857,755.21933 C 18.066802,752.1312 13.21609,752.36218 20,752.36218 c 0.952381,0 2.005307,0.42592 2.857143,0 1.204677,-0.60234 1.652466,-2.2548 2.857143,-2.85714 0.751261,-0.37563 9.934513,0 11.428571,0 0.952381,0 1.904762,0 2.857143,0 0.952381,0 2.183708,-0.67344 2.857143,0 0.673435,0.67343 -0.673435,2.18371 0,2.85714 0.673435,0.67344 1.904762,0 2.857143,0 0.952381,0 2.005307,0.42592 2.857143,0 1.204677,-0.60234 1.652465,-2.2548 2.857142,-2.85714 1.132834,-0.56642 7.987325,0.5841 8.571429,0 0.673435,-0.67344 -0.673435,-2.18371 0,-2.85714 0.673435,-0.67344 1.904762,0 2.857143,0 0.952381,0 2.183708,-0.67344 2.857143,0 1.34687,1.34687 -1.34687,4.36741 0,5.71428 0.114975,0.11498 10.379324,0 11.428571,0 1.049248,0 11.313596,-0.11497 11.428572,0 0.673435,0.67344 -0.673435,2.18371 0,2.85715 0.673435,0.67343 1.904761,0 2.857142,0 1.049248,0 11.313599,0.11497 11.428569,0 3.80953,-3.80953 -4.761902,-2.85715 2.85715,-2.85715 0.95238,0 2.1837,-0.67343 2.85714,0 0.67343,0.67344 -0.67344,2.18371 0,2.85715 0.67343,0.67343 2.18371,-0.67344 2.85714,0 0.67344,0.67343 -0.67343,2.1837 0,2.85714 0.28572,0.28571 8.28572,0.28571 8.57143,0 0.67344,-0.67344 -0.67344,-2.18371 0,-2.85714 0.67344,-0.67344 2.18371,0.67343 2.85714,0 0.67344,-0.67344 -0.67343,-2.18371 0,-2.85715 1.42857,-1.42857 7.14286,1.42857 8.57143,0 0.67344,-0.67343 -0.67343,-2.18371 0,-2.85714 1.34687,-1.34687 4.36742,1.34687 5.71429,0 0.67343,-0.67344 -0.67344,-2.18371 0,-2.85714 0.67343,-0.67344 1.90476,0 2.85714,0 1.34714,0 14.15622,-0.12949 14.28571,0 0.67344,0.67343 -0.67343,2.1837 0,2.85714 0.67344,0.67343 2.00531,-0.42592 2.85715,0 1.20467,0.60234 1.65246,2.2548 2.85714,2.85714 0.85184,0.42592 2.18371,-0.67343 2.85714,0 0.67344,0.67344 -0.67343,2.18371 0,2.85715 0.0919,0.0919 7.8785,0 8.57143,0 8.57143,0 17.14286,0 25.71429,0 0.95238,0 1.90476,0 2.85714,0 0.95238,0 2.18371,0.67343 2.85714,0 0.67344,-0.67344 -0.67343,-2.18371 0,-2.85715 1.34687,-1.34687 4.36742,1.34687 5.71429,0 0.67343,-0.67343 -0.67344,-2.18371 0,-2.85714 1.42857,-1.42857 7.14286,1.42857 8.57143,0 0.67343,-0.67344 -0.67344,-2.18371 0,-2.85714 0.67343,-0.67344 2.1837,0.67343 2.85714,0 0.67344,-0.67344 -0.67344,-2.18371 0,-2.85715 1.34687,-1.34687 4.01061,0.85184 5.71429,0 2.40935,-1.20467 3.30493,-4.5096 5.71428,-5.71428 0.86953,-0.43476 7.28469,0 8.57143,0 0.95238,0 2.18371,-0.67344 2.85714,0 0.67344,0.67343 -0.67343,2.18371 0,2.85714 1.34687,1.34687 4.36742,-1.34687 5.71429,0 0.67343,0.67344 -0.67344,2.18371 0,2.85714 0.67343,0.67344 2.18371,-0.67343 2.85714,0 0,7.61905 -0.95238,-0.95238 2.85714,2.85715 0.67344,0.67343 -0.67343,2.1837 0,2.85714 1.34687,1.34687 4.36742,-1.34687 5.71429,0 0.67344,0.67343 -0.67344,2.18371 0,2.85714 0.67344,0.67344 2.18371,-0.67343 2.85714,0 3.80953,3.80953 -4.7619,2.85715 2.85715,2.85715 12.38095,0 24.7619,0 37.14285,0 5.71429,0 11.42857,0 17.14286,0 0.95238,0 2.85714,-0.95239 2.85714,0 0,0.95238 -3.80952,0 -2.85714,0 1.90476,0 4.01061,-0.85184 5.71429,0 0.85183,0.42591 -0.67344,2.1837 0,2.85714 0.67343,0.67343 1.90476,0 2.85714,0 0.69293,0 8.47954,0.0919 8.57143,0 0.67343,-0.67344 -0.67344,-2.18371 0,-2.85714 1.34687,-1.34687 4.36741,1.34687 5.71428,0 0.67344,-0.67344 -0.67343,-2.18371 0,-2.85715 0.28572,-0.28571 8.28572,-0.28571 8.57143,0 0.67344,0.67344 -0.67343,2.18371 0,2.85715 0.67344,0.67343 2.18371,-0.67344 2.85714,0 0.67344,0.67343 -0.67343,2.1837 0,2.85714 0.11498,0.11497 10.37933,0 11.42858,0 7.61904,0 -0.95239,0.95238 2.85714,-2.85714 0.67343,-0.67344 2.00531,0.42591 2.85714,0 1.20468,-0.60234 1.65247,-2.25481 2.85714,-2.85715 0.85184,-0.42592 2.18371,0.67344 2.85715,0 0.67343,-0.67343 -0.67344,-2.18371 0,-2.85714 0.8847,-0.88471 13.40101,0.88471 14.28571,0 0.67344,-0.67344 -0.85183,-2.43123 0,-2.85714 2.25387,-2.55551 6.01592,1.27775 8.57143,0 1.20468,-0.60234 1.65247,-2.25481 2.85714,-2.85715 0.86953,-0.43476 7.2847,0 8.57143,0 0.95238,0 2.18371,-0.67343 2.85714,0 0.67344,0.67344 -0.67343,2.18371 0,2.85715 0.67344,0.67343 2.18371,-0.67344 2.85715,0 0.67343,0.67343 -0.67344,2.1837 0,2.85714 0.67343,0.67343 2.1837,-0.67344 2.85714,0 0.67344,0.67343 -0.67344,2.18371 0,2.85714 0.0919,0.0919 7.8785,0 8.57143,0 0.95238,0 1.90476,0 2.85714,0 0.95238,0 2.18371,0.67344 2.85714,0 0.67344,-0.67343 -0.67343,-2.18371 0,-2.85714 0.68752,-0.68752 10.74106,0.68752 11.42858,0 0.67343,-0.67344 -0.67344,-2.18371 0,-2.85714 0.67343,-0.67344 1.90476,0 2.85714,0 5.71428,0 11.42857,0 17.14286,0 1.34713,0 14.15622,-0.12949 14.28571,0 0.67344,0.67343 -0.67344,2.1837 0,2.85714 0.67344,0.67343 2.18371,-0.67344 2.85714,0 0.67344,0.67343 -0.42591,2.00531 0,2.85714 1.20468,2.40936 4.50961,3.30493 5.71429,5.71429 0.42592,0.85183 -0.67344,2.18371 0,2.85714 0.67343,0.67344 2.18371,-0.67343 2.85714,0 0.67344,0.67344 -0.67343,2.18371 0,2.85714 0.67344,0.67344 2.18371,-0.67343 2.85714,0 0.67344,0.67344 -0.67343,2.18371 0,2.85715 0.28572,0.28571 8.28572,0.28571 8.57143,0 0.67344,-0.67344 -0.67343,-2.18371 0,-2.85715 0.003,-0.003 8.55848,0.004 8.57143,0 1.27775,-0.42591 1.65247,-2.2548 2.85714,-2.85714 0.86953,-0.43476 7.2847,0 8.57143,0 19.04762,0 38.09524,0 57.14286,0 2.85714,0 5.71429,0 8.57143,0 0.95238,0 2.18371,0.67344 2.85714,0 0.67344,-0.67343 -0.67343,-2.18371 0,-2.85714 0.78178,-0.78178 9.87861,0.77498 11.42857,0 1.20468,-0.60234 1.65247,-2.25481 2.85715,-2.85714 0.75126,-0.37564 9.93451,0 11.42857,0 10.47619,0 20.95238,0 31.42857,0 0.95238,0 1.90476,0 2.85714,0 0.95238,0 2.18371,0.67343 2.85714,0 0.67344,-0.67344 -0.67343,-2.18371 0,-2.85715 1.34687,-1.34687 4.01062,0.85184 5.71429,0 1.20468,-0.60234 1.65247,-2.2548 2.85714,-2.85714 0.85184,-0.42592 2.18371,0.67343 2.85715,0 0.67343,-0.67344 -0.67344,-2.18371 0,-2.85714 0.67343,-0.67344 1.90476,0 2.85714,0 0.95238,0 2.18371,-0.67344 2.85714,0 0.67344,0.67343 0,1.90476 0,2.85714 0.95238,0 2.18371,-0.67344 2.85714,0 1.42858,1.42857 -1.42857,7.14286 0,8.57143 3.80953,3.80952 2.85715,-4.76191 2.85715,2.85714"
       id="path3899"
       inkscape:connector-curvature="0" />
    <path
       style="fill:none;stroke:#000000;stroke-width:1px;stroke-linecap:butt;stroke-linejoin:miter;stroke-opacity:1"
       d="m 108.57143,678.07647 2.85714,0"
       id="path3907"
       inkscape:connector-curvature="0" />
    <text
       xml:space="preserve"
       style="font-size:40px;font-style:normal;font-weight:normal;line-height:125%;letter-spacing:0px;word-spacing:0px;fill:#000000;fill-opacity:1;stroke:none;font-family:Sans"
       x="48.57143"
       y="703.79077"
       id="text3925"
       sodipodi:linespacing="125%"><tspan
         sodipodi:role="line"
         id="tspan3927"
         x="48.57143"
         y="703.79077">Noise</tspan><tspan
         sodipodi:role="line"
         x="48.57143"
         y="753.79077"
         id="tspan3929" /></text>
  </g>
</svg>
