<?xml version="1.0" encoding="UTF-8" standalone="no"?>
<!-- Created with Inkscape (http://www.inkscape.org/) -->

<svg
   xmlns:dc="http://purl.org/dc/elements/1.1/"
   xmlns:cc="http://creativecommons.org/ns#"
   xmlns:rdf="http://www.w3.org/1999/02/22-rdf-syntax-ns#"
   xmlns:svg="http://www.w3.org/2000/svg"
   xmlns="http://www.w3.org/2000/svg"
   xmlns:sodipodi="http://sodipodi.sourceforge.net/DTD/sodipodi-0.dtd"
   xmlns:inkscape="http://www.inkscape.org/namespaces/inkscape"
   width="744.09448819"
   height="1052.3622047"
   id="svg2"
   version="1.1"
   inkscape:version="0.48.4 r9939"
   sodipodi:docname="sidereal.svg"
   inkscape:export-filename="/home/xgao/interferometer/sidereal.png"
   inkscape:export-xdpi="90"
   inkscape:export-ydpi="90">
  <defs
     id="defs4" />
  <sodipodi:namedview
     id="base"
     pagecolor="#ffffff"
     bordercolor="#666666"
     borderopacity="1.0"
     inkscape:pageopacity="0.0"
     inkscape:pageshadow="2"
     inkscape:zoom="0.35"
     inkscape:cx="375"
     inkscape:cy="1920.4387"
     inkscape:document-units="px"
     inkscape:current-layer="layer1"
     showgrid="false"
     inkscape:window-width="1024"
     inkscape:window-height="713"
     inkscape:window-x="-2"
     inkscape:window-y="32"
     inkscape:window-maximized="1"
     showguides="true"
     inkscape:guide-bbox="true" />
  <metadata
     id="metadata7">
    <rdf:RDF>
      <cc:Work
         rdf:about="">
        <dc:format>image/svg+xml</dc:format>
        <dc:type
           rdf:resource="http://purl.org/dc/dcmitype/StillImage" />
        <dc:title></dc:title>
      </cc:Work>
    </rdf:RDF>
  </metadata>
  <g
     inkscape:label="Layer 1"
     inkscape:groupmode="layer"
     id="layer1">
    <text
       xml:space="preserve"
       style="font-size:40px;font-style:normal;font-weight:normal;line-height:125%;letter-spacing:0px;word-spacing:0px;fill:#000000;fill-opacity:1;stroke:none;font-family:Sans"
       x="-440"
       y="-1256.2092"
       id="text3002"
       sodipodi:linespacing="125%"><tspan
         sodipodi:role="line"
         id="tspan3004"
         x="-440"
         y="-1256.2092">Sun</tspan></text>
    <path
       sodipodi:type="arc"
       style="fill:#ffff00"
       id="path3010"
       sodipodi:cx="-412.85715"
       sodipodi:cy="-1266.2092"
       sodipodi:rx="227.14285"
       sodipodi:ry="212.85715"
       d="m -185.71429,-1266.2092 a 227.14285,212.85715 0 1 1 -454.28571,0 227.14285,212.85715 0 1 1 454.28571,0 z" />
    <text
       xml:space="preserve"
       style="font-size:40px;font-style:normal;font-weight:normal;line-height:125%;letter-spacing:0px;word-spacing:0px;fill:#000000;fill-opacity:1;stroke:none;font-family:Sans"
       x="-442.85715"
       y="-1244.7806"
       id="text3016"
       sodipodi:linespacing="125%"><tspan
         sodipodi:role="line"
         id="tspan3018"
         x="-442.85715"
         y="-1244.7806">Sun</tspan></text>
    <text
       xml:space="preserve"
       style="font-size:40px;font-style:normal;font-weight:normal;line-height:125%;letter-spacing:0px;word-spacing:0px;fill:#ffffff;fill-opacity:1;stroke:none;font-family:Sans"
       x="542.85712"
       y="-633.35211"
       id="text3020"
       sodipodi:linespacing="125%"><tspan
         sodipodi:role="line"
         id="tspan3022"
         x="542.85712"
         y="-633.35211" /></text>
    <path
       sodipodi:type="arc"
       style="fill:#00ffff"
       id="path3032"
       sodipodi:cx="510"
       sodipodi:cy="-564.7807"
       sodipodi:rx="72.85714"
       sodipodi:ry="71.428574"
       d="m 582.85714,-564.7807 a 72.85714,71.428574 0 1 1 -145.71428,0 72.85714,71.428574 0 1 1 145.71428,0 z" />
    <path
       sodipodi:type="arc"
       style="fill:#00ffff"
       id="path3044"
       sodipodi:cx="770"
       sodipodi:cy="-1303.3521"
       sodipodi:rx="72.85714"
       sodipodi:ry="70"
       d="m 842.85714,-1303.3521 a 72.85714,70 0 1 1 -145.71428,0 72.85714,70 0 1 1 145.71428,0 z" />
    <path
       style="fill:none;stroke:#000000;stroke-width:1px;stroke-linecap:butt;stroke-linejoin:miter;stroke-opacity:1"
       d="m -217.14286,-1133.3521 c 665.71429,511.42857 665.71429,511.42857 665.71429,511.42857 l 0,0"
       id="path3052"
       inkscape:connector-curvature="0" />
    <path
       style="fill:none;stroke:#000000;stroke-width:1px;stroke-linecap:butt;stroke-linejoin:miter;stroke-opacity:1"
       d="m -180,-1273.3521 c 871.42857,-28.5714 871.42857,-28.5714 871.42857,-28.5714"
       id="path3054"
       inkscape:connector-curvature="0" />
    <path
       style="fill:none;stroke:#000000;stroke-width:1px;stroke-linecap:butt;stroke-linejoin:miter;stroke-opacity:1"
       d="m 422.85714,-559.06639 c -871.42857,31.42857 -871.42857,31.42857 -871.42857,31.42857 l 0,0"
       id="path3056"
       inkscape:connector-curvature="0" />
    <path
       style="fill:none;stroke:#000000;stroke-width:1px;stroke-linecap:butt;stroke-linejoin:miter;stroke-opacity:1"
       d="M -662.85714,-441.92353 z"
       id="path3058"
       inkscape:connector-curvature="0" />
    <text
       xml:space="preserve"
       style="font-size:40px;font-style:normal;font-weight:normal;line-height:125%;letter-spacing:0px;word-spacing:0px;fill:#000000;fill-opacity:1;stroke:none;font-family:Sans"
       x="745.71429"
       y="-1290.495"
       id="text3060"
       sodipodi:linespacing="125%"><tspan
         sodipodi:role="line"
         id="tspan3062"
         x="745.71429"
         y="-1290.495" /></text>
    <text
       xml:space="preserve"
       style="font-size:40px;font-style:normal;font-weight:normal;line-height:125%;letter-spacing:0px;word-spacing:0px;fill:#000000;fill-opacity:1;stroke:none;font-family:Sans"
       x="717.14288"
       y="-1287.6378"
       id="text3064"
       sodipodi:linespacing="125%"><tspan
         sodipodi:role="line"
         id="tspan3066"
         x="717.14288"
         y="-1287.6378">Earth</tspan></text>
    <text
       xml:space="preserve"
       style="font-size:40px;font-style:normal;font-weight:normal;line-height:125%;letter-spacing:0px;word-spacing:0px;fill:#000000;fill-opacity:1;stroke:none;font-family:Sans"
       x="457.14285"
       y="-547.63782"
       id="text3068"
       sodipodi:linespacing="125%"><tspan
         sodipodi:role="line"
         id="tspan3070"
         x="457.14285"
         y="-547.63782">Earth</tspan></text>
    <path
       style="fill:none;stroke:#000000;stroke-width:1px;stroke-linecap:butt;stroke-linejoin:miter;stroke-opacity:1"
       d="m 382.85714,-567.63782 c -3.80952,-2.85714 -14.28571,-4.7619 -11.42857,-8.57143 2.85714,-3.80952 11.42857,13.33334 11.42857,8.57143 0,-6.09821 -8.04589,-9.21169 -11.42857,-14.28571 -0.52828,-0.79243 0.67344,-2.18371 0,-2.85714 -0.67343,-0.67344 -2.18371,0.67343 -2.85714,0 -0.67344,-0.67344 0,-1.90477 0,-2.85715 0,-4.7619 0,-9.52381 0,-14.28571 0,-1.90476 0,-3.80953 0,-5.71429 0,-0.95238 -0.95238,-2.85714 0,-2.85714 0.95238,0 0,3.80952 0,2.85714 0,-2.85714 0,-5.71428 0,-8.57143 0,-0.95238 0,-1.90476 0,-2.85714 0,-0.95238 -0.67344,-2.18371 0,-2.85714 0.67343,-0.67344 2.18371,0.67343 2.85714,0 0.67344,-0.67344 -0.67343,-2.18371 0,-2.85714 0.67344,-0.67344 2.18371,0.67343 2.85714,0 1.42858,-1.42858 -1.42857,-7.14286 0,-8.57143 0.67344,-0.67344 2.18371,0.67343 2.85715,0 1.34687,-1.34687 -1.34687,-4.36742 0,-5.71429 0.67343,-0.67343 2.1837,0.67344 2.85714,0 0.67344,-0.67343 -0.67344,-2.18371 0,-2.85714 1.34687,-1.34687 4.36742,1.34687 5.71429,0 0.67343,-0.67344 -0.67344,-2.18371 0,-2.85714 1.86407,-1.86408 3.8502,1.86407 5.71428,0 0.67344,-0.67344 -0.67343,-2.18371 0,-2.85715 0.67344,-0.67343 2.18371,0.67344 2.85714,0 0.67344,-0.67343 -0.67343,-2.18371 0,-2.85714 1.34687,-1.34687 4.36742,1.34687 5.71429,0 0.67344,-0.67344 -0.67344,-2.18371 0,-2.85714 1.34687,-1.34687 4.36742,1.34687 5.71429,0 3.80952,-3.80953 -4.76191,-2.85715 2.85714,-2.85715"
       id="path3092"
       inkscape:connector-curvature="0" />
    <path
       style="fill:none;stroke:#000000;stroke-width:1px;stroke-linecap:butt;stroke-linejoin:miter;stroke-opacity:1"
       d="m 282.85714,-659.06639 c -1.90476,3.80952 -1.90476,13.33333 -5.71428,11.42857 -3.80953,-1.90476 8.72598,-14.44026 5.71428,-11.42857 -3.92676,3.92677 -6.08792,9.3187 -8.57143,14.28572 -0.56641,1.13283 0.58411,7.98732 0,8.57142 -0.67343,0.67344 -2.1837,-0.67343 -2.85714,0 -0.67343,0.67344 0,1.90477 0,2.85715 0,0.95238 0,1.90476 0,2.85714 0,7.61905 0,15.23809 0,22.85714 0,2.85715 0,5.71429 0,8.57143 0,0.95238 0,3.80952 0,2.85714 0,-1.90476 -1.90476,-5.71428 0,-5.71428 7.86761,0 0.80687,6.52115 2.85714,8.57143 1.34687,1.34687 4.36742,-1.34687 5.71429,0 0.67344,0.67343 -0.67344,2.1837 0,2.85714 0.67344,0.67343 2.85714,-0.95238 2.85714,0 0,0.95238 -3.80952,0 -2.85714,0 1.90476,0 3.80952,0 5.71429,0 0.95238,0 2.85714,-0.95238 2.85714,0 0,0.95238 -3.80953,0 -2.85714,0 1.90476,0 4.01061,0.85184 5.71428,0 0.85184,-0.42592 -0.67343,-2.18371 0,-2.85714 0.67344,-0.67344 2.18371,0.67343 2.85714,0 0.67344,-0.67344 0,-1.90477 0,-2.85715 0.95239,0 2.18371,0.67344 2.85715,0 0.67343,-0.67343 -0.67344,-2.1837 0,-2.85714 0.67343,-0.67343 2.1837,0.67344 2.85714,0 0.67344,-0.67343 0,-1.90476 0,-2.85714 0,-0.95238 0,-3.80953 0,-2.85714 0,1.90476 -1.90476,5.71428 0,5.71428 5.88883,0 1.27995,-9.85137 2.85714,-11.42857 3.80953,-3.80952 2.85715,4.7619 2.85715,-2.85714 0,-1.34714 -0.1295,-14.15623 0,-14.28572 0.67343,-0.67343 2.1837,0.67344 2.85714,0 0.67343,-0.67343 0,-1.90476 0,-2.85714 0,-0.95238 0,-1.90476 0,-2.85714 0,-2.81633 0,-8.53062 0,-5.71429 0,1.90476 0,7.61905 0,5.71429 0,-2.85715 0,-5.71429 0,-8.57143 0,-0.95238 0.67343,-2.18371 0,-2.85714 -0.67344,-0.67344 -2.18371,0.67343 -2.85714,0 -0.67344,-0.67344 0,-1.90477 0,-2.85715 -0.95239,0 -2.18371,0.67344 -2.85715,0 -0.67343,-0.67343 0.67344,-2.18371 0,-2.85714 -0.67343,-0.67344 -2.1837,0.67343 -2.85714,0 -0.67344,-0.67344 0.42592,-2.00531 0,-2.85714 -0.60234,-1.20468 -2.2548,-1.65247 -2.85714,-2.85715 -0.42592,-0.85183 0.67343,-2.1837 0,-2.85714 -0.67344,-0.67343 -1.90476,0 -2.85715,0 -3.80952,0 -7.61904,0 -11.42857,0 z"
       id="path3098"
       inkscape:connector-curvature="0" />
    <path
       style="fill:none;stroke:#000000;stroke-width:1px;stroke-linecap:butt;stroke-linejoin:miter;stroke-opacity:1"
       d="m 280,-630.49496 c 7.61905,0 15.2381,0 22.85714,0"
       id="path3100"
       inkscape:connector-curvature="0" />
    <flowRoot
       xml:space="preserve"
       id="flowRoot3105"
       style="fill:black;stroke:none;stroke-opacity:1;stroke-width:1px;stroke-linejoin:miter;stroke-linecap:butt;fill-opacity:1;font-family:Sans;font-style:normal;font-weight:normal;font-size:40px;line-height:125%;letter-spacing:0px;word-spacing:0px"><flowRegion
         id="flowRegion3107"><rect
           id="rect3109"
           width="222.85715"
           height="77.14286"
           x="991.42859"
           y="-1444.7806" /></flowRegion><flowPara
         id="flowPara3111" /></flowRoot>    <path
       style="fill:none;stroke:#000000;stroke-width:1px;stroke-linecap:butt;stroke-linejoin:miter;stroke-opacity:1"
       d="m 782.85714,-1401.9235 c 3.80953,0 11.42857,-3.8096 11.42857,0 0,3.8095 -14.12231,-2.6938 -11.42857,0 3.43386,3.4338 9.49558,2.0588 14.28572,2.8571 0.93942,0.1566 2.1837,-0.6734 2.85714,0 0.67344,0.6734 -0.67344,2.1837 0,2.8572 1.34687,1.3468 4.36742,-1.3469 5.71429,0 0.67343,0.6734 -0.67344,2.1837 0,2.8571 1.42857,1.4286 7.14285,-1.4286 8.57142,0 0.67344,0.6734 -0.67343,2.1837 0,2.8571 0.67344,0.6735 2.18371,-0.6734 2.85715,0 0.67343,0.6735 -0.67344,2.1837 0,2.8572 0.67343,0.6734 2.1837,-0.6735 2.85714,0 0.67344,0.6734 -0.67344,2.1837 0,2.8571 1.34687,1.3469 4.36742,-1.3468 5.71429,0 0.67343,0.6735 0,1.9048 0,2.8572 0.95238,0 2.1837,-0.6735 2.85714,0 0.67343,0.6734 -0.67344,2.1837 0,2.8571 0.67343,0.6734 2.18371,-0.6734 2.85714,0 0.67344,0.6734 -0.67343,2.1837 0,2.8572 1.34687,1.3468 4.36742,-1.3469 5.71429,0 0.67343,0.6734 0,1.9047 0,2.8571 0.95238,0 2.1837,-0.6734 2.85714,0 0.67344,0.6734 -0.67344,2.1837 0,2.8571 0.67344,0.6735 2.18371,-0.6734 2.85714,0 0.67344,0.6735 -0.67343,2.1837 0,2.8572 0.67344,0.6734 2.18371,-0.6735 2.85715,0 0,7.619 -0.95239,-0.9524 2.85714,2.8571 0.67343,0.6735 -0.67344,2.1837 0,2.8572 0.67343,0.6734 2.18371,-0.6735 2.85714,0 0.67344,0.6734 0,1.9047 0,2.8571 0.95238,0 2.18371,-0.6734 2.85714,0 0.67344,0.6734 -0.67343,2.1837 0,2.8572 0.67344,0.6734 2.18371,-0.6735 2.85715,0 0.67343,0.6734 0,1.9047 0,2.8571 0.95238,0 2.1837,-0.6734 2.85714,0 1.34687,1.3469 -1.34687,4.3674 0,5.7143 0.67344,0.6734 2.18371,-0.6735 2.85714,0 1.34687,1.3469 -1.34687,4.3674 0,5.7143 0.67344,0.6734 2.18371,-0.6735 2.85715,0 0.67343,0.6734 0,1.9047 0,2.8571 0.95238,0 2.1837,-0.6734 2.85714,0 1.34687,1.3469 -1.34687,4.3674 0,5.7143 0.67343,0.6734 2.18371,-0.6734 2.85714,0 0.67344,0.6734 -0.67343,2.1837 0,2.8571 0.67344,0.6735 2.18371,-0.6734 2.85714,0 0.68752,0.6876 -0.68751,10.7411 0,11.4286 0.67344,0.6734 2.18371,-0.6734 2.85715,0 0.8847,0.8847 -0.88471,13.401 0,14.2857 0.67343,0.6735 2.1837,-0.6734 2.85714,0 0.11498,0.115 0,10.3793 0,11.4286 0,5.7143 0,11.4286 0,17.1429 0,0.9523 0.67344,2.1837 0,2.8571 -0.67344,0.6734 -2.18371,-0.6734 -2.85714,0 -1.34687,1.3469 1.34687,4.3674 0,5.7143 -0.67344,0.6734 -2.18371,-0.6735 -2.85715,0 -1.34687,1.3469 1.34687,4.3674 0,5.7143 -0.67343,0.6734 -2.1837,-0.6735 -2.85714,0 -1.34687,1.3468 1.34687,4.3674 0,5.7143 -0.67343,0.6734 -2.18371,-0.6735 -2.85714,0 -0.67344,0.6734 0,1.9047 0,2.8571 -0.95238,0 -2.18371,-0.6734 -2.85714,0 -0.67344,0.6734 0.67343,2.1837 0,2.8571 -0.67344,0.6735 -2.18371,-0.6734 -2.85715,0 -0.67343,0.6735 0,1.9048 0,2.8572 -0.95238,0 -2.1837,-0.6735 -2.85714,0 -1.34687,1.3469 1.34687,4.3674 0,5.7143 -5.91153,5.9115 0.23109,-9.0336 -5.71429,2.8571 -0.42591,0.8518 0.67344,2.1837 0,2.8572 -0.67343,0.6734 -2.1837,-0.6735 -2.85714,0 -0.67343,0.6734 0.42592,2.0053 0,2.8571 -0.91428,1.8286 -4.8,3.8857 -5.71428,5.7143 -0.42592,0.8518 0.67343,2.1837 0,2.8571 -0.67344,0.6735 -2.18371,-0.6734 -2.85715,0 -0.67343,0.6735 0.67344,2.1837 0,2.8572 -0.67343,0.6734 -2.1837,-0.6735 -2.85714,0 -1.34687,1.3468 1.34687,4.3674 0,5.7143 -1.34687,1.3468 -4.36742,-1.3469 -5.71429,0 -0.67343,0.6734 0,1.9047 0,2.8571 -0.95238,0 -2.1837,-0.6734 -2.85714,0 -0.67343,0.6734 0.67344,2.1837 0,2.8571 -1.34687,1.3469 -4.36741,-1.3468 -5.71428,0 -0.67344,0.6735 0.67343,2.1837 0,2.8572 -0.67344,0.6734 -2.18371,-0.6735 -2.85715,0 -0.67343,0.6734 0.67344,2.1837 0,2.8571 -0.67343,0.6735 -2.1837,-0.6734 -2.85714,0 -0.67344,0.6735 0.67344,2.1837 0,2.8572 -0.67344,0.6734 -1.90476,0 -2.85714,0 -0.95238,0 -1.90476,0 -2.85715,0 -7.61904,0 0.95239,-0.9524 -2.85714,2.8571 -1.34687,1.3469 -4.36741,-1.3469 -5.71428,0 -0.67344,0.6734 0.67343,2.1837 0,2.8572 -1.42858,1.4285 -7.14286,-1.4286 -8.57143,0 -0.67344,0.6734 0.67343,2.1837 0,2.8571 -0.67344,0.6734 -1.90476,0 -2.85715,0 -0.95238,0 -1.90476,0 -2.85714,0 -0.95238,0 -2.85714,0.9524 -2.85714,0 0,-0.9524 2.18371,0.6734 2.85714,0 1.42857,-1.4286 -1.42857,-7.1429 0,-8.5714 0.67344,-0.6735 2.18371,0.6734 2.85714,0 0.67344,-0.6735 0,-1.9048 0,-2.8572 0,-4.7619 0,-9.5238 0,-14.2857"
       id="path3129"
       inkscape:connector-curvature="0" />
    <path
       style="fill:none;stroke:#000000;stroke-width:1px;stroke-linecap:butt;stroke-linejoin:miter;stroke-opacity:1"
       d="m 791.42857,-1196.2092 c -1.4601,17.2462 10.85186,-0.5768 14.28572,2.8571 0.67343,0.6734 -0.67344,2.1837 0,2.8571 0.0919,0.092 7.87849,0 8.57142,0"
       id="path3131"
       inkscape:connector-curvature="0" />
    <path
       style="fill:none;stroke:#000000;stroke-width:1px;stroke-linecap:butt;stroke-linejoin:miter;stroke-opacity:1"
       d="m 562.85714,-664.78067 c 4.76191,0 9.52381,0 14.28572,0 0.95238,0 2.1837,-0.67344 2.85714,0 0.67344,0.67343 -0.67344,2.1837 0,2.85714 0.67344,0.67343 2.18371,-0.67344 2.85714,0 0.67344,0.67343 -0.67343,2.18371 0,2.85714 0.67344,0.67344 2.18371,-0.67343 2.85715,0 0.67343,0.67344 -0.67344,2.18371 0,2.85714 1.34687,1.34687 4.36741,-1.34687 5.71428,0 0.67344,0.67344 -0.67343,2.18371 0,2.85715 0.67344,0.67343 2.18371,-0.67344 2.85714,0 0.67344,0.67343 -0.67343,2.1837 0,2.85714 0.67344,0.67343 2.18371,-0.67344 2.85715,0 0.67343,0.67343 -0.67344,2.18371 0,2.85714 5.91153,5.91153 -0.23109,-9.0336 5.71428,2.85715 0.42592,0.85183 -0.67343,2.1837 0,2.85714 0.67344,0.67343 2.18371,-0.67344 2.85715,0 0.67343,0.67343 -0.67344,2.18371 0,2.85714 0.67343,0.67344 2.1837,-0.67343 2.85714,0 1.34687,1.34687 -1.34687,4.36742 0,5.71429 0.67343,0.67343 2.18371,-0.67344 2.85714,0 0.67344,0.67343 -0.67343,2.1837 0,2.85714 0.67344,0.67343 2.18371,-0.67344 2.85714,0 1.34687,1.34687 -1.34687,4.36742 0,5.71429 0.67344,0.67343 2.18371,-0.67344 2.85715,0 0.67343,0.67343 -0.67344,2.1837 0,2.85714 0.67343,0.67343 2.1837,-0.67344 2.85714,0 0.68752,0.68752 -0.68752,10.74105 0,11.42857 0.67344,0.67343 2.18371,-0.67344 2.85714,0 0.68752,0.68752 -0.68751,10.74105 0,11.42857 0.67344,0.67344 2.18371,-0.67343 2.85715,0 0.8847,0.88471 -0.88471,13.40101 0,14.28572 0.67343,0.67343 2.1837,-0.67344 2.85714,0 0.67343,0.67343 0,1.90476 0,2.85714 0,1.34714 -0.12949,14.15622 0,14.28571 0.67343,0.67344 2.18371,-0.67343 2.85714,0 0.67344,0.67344 0,1.90476 0,2.85715 0,0.95238 0,1.90476 0,2.85714 0,8.57143 0,17.14286 0,25.71428 0,4.76191 0,9.52381 0,14.28572 0,0.95238 0.67344,2.18371 0,2.85714 -0.67343,0.67344 -2.18371,-0.67343 -2.85714,0 -1.34687,1.34687 1.34687,4.36742 0,5.71429 -0.67344,0.67343 -2.18371,-0.67344 -2.85714,0 -1.42858,1.42857 1.42857,7.14285 0,8.57143 -0.67344,0.67343 -2.18371,-0.67344 -2.85715,0 -1.34687,1.34687 1.90476,5.71428 0,5.71428 -0.95238,0 0.95238,-2.85714 0,-2.85714 -5.94537,0 -1.14962,4.00677 -2.85714,5.71428 -0.67344,0.67344 -1.90476,0 -2.85714,0 0,0.95238 0.67343,2.18371 0,2.85715 -0.67344,0.67343 -1.90476,0 -2.85715,0 -0.95238,0 -2.1837,-0.67344 -2.85714,0 -0.67343,0.67343 0.67344,2.1837 0,2.85714 -0.67343,0.67343 -2.18371,-0.67344 -2.85714,0 -0.67344,0.67343 0.67343,2.18371 0,2.85714 -1.34687,1.34687 -4.36742,-1.34687 -5.71429,0 -0.67343,0.67344 0.67344,2.18371 0,2.85715 -0.67343,0.67343 -2.1837,-0.67344 -2.85714,0 -0.67344,0.67343 0.67344,2.1837 0,2.85714 -0.67344,0.67343 -2.18371,-0.67344 -2.85714,0 -0.67344,0.67343 0.67343,2.18371 0,2.85714 -0.67344,0.67344 -1.90476,0 -2.85715,0 -0.95238,0 -2.1837,-0.67343 -2.85714,0 -0.67343,0.67344 0.67344,2.18371 0,2.85714 -0.67343,0.67344 -2.18371,-0.67343 -2.85714,0 -0.67344,0.67344 0.67343,2.18371 0,2.85715 -0.67344,0.67343 -2.18371,-0.67344 -2.85714,0 -0.67344,0.67343 0.67343,2.1837 0,2.85714 -0.95239,0 -1.90477,0 -2.85715,0 -0.95238,0 -2.1837,-0.67344 -2.85714,0 -0.67344,0.67343 0.67344,2.18371 0,2.85714 -0.67344,0.67344 -2.18371,-0.67343 -2.85714,0 -0.67344,0.67344 0.67343,2.18371 0,2.85715 -7.61905,0 0.95238,-0.95239 -2.85715,2.85714 -0.67343,0.67343 -2.0053,-0.42592 -2.85714,0 -1.20468,0.60234 -1.65246,2.2548 -2.85714,2.85714 -0.85184,0.42592 -2.18371,-0.67343 -2.85714,0 -0.67344,0.67344 0.67343,2.18371 0,2.85714 -0.67344,0.67344 -2.18371,-0.67343 -2.85715,0 -0.67343,0.67344 0.67344,2.18371 0,2.85715 -1.34687,1.34687 -4.36741,-1.34687 -5.71428,0 -0.67344,0.67343 0.67343,2.1837 0,2.85714 -1.90099,1.90099 -3.8133,-1.90099 -5.71429,0 -0.67343,0.67343 0.67344,2.18371 0,2.85714 -0.67343,0.67344 -1.90476,0 -2.85714,0 -4.76191,0 -9.52381,0 -14.28572,0 -0.95238,0 -2.1837,-0.67343 -2.85714,0 -0.67343,0.67344 0.67344,2.18371 0,2.85715 -0.68752,0.68751 -10.74105,-0.68752 -11.42857,0 -3.80952,3.80952 4.7619,2.85714 -2.85714,2.85714 -5.71429,0 -11.42857,0 -17.14286,0 -0.95238,0 -2.85714,0.95238 -2.85714,0 0,-0.95238 3.80952,0 2.85714,0 -1.90476,0 -3.80952,0 -5.71429,0 -0.95238,0 -2.1837,0.67343 -2.85714,0 -0.67343,-0.67344 0.67344,-2.18371 0,-2.85714 -1.34687,-1.34687 -4.01061,0.85183 -5.71428,0 -1.20468,-0.60234 -1.65247,-2.25481 -2.85715,-2.85715 -0.85183,-0.42592 -2.1837,0.67344 -2.85714,0 -0.67344,-0.67343 0.67344,-2.18371 0,-2.85714 -7.61905,0 0.95238,0.95238 -2.85714,-2.85714 -0.67344,-0.67344 -2.18371,0.67343 -2.85715,0 -0.67343,-0.67344 0.67344,-2.18371 0,-2.85715 -1.34687,-1.34687 -4.36741,1.34687 -5.71428,0 -2.81851,-2.8185 5.8545,-5.71428 -2.85714,-5.71428 -7.61905,0 0.95238,0.95238 -2.85715,-2.85714 -1.34687,-1.34687 -4.36741,1.34687 -5.71428,0 -0.67344,-0.67344 0.67343,-2.18371 0,-2.85715 -0.67344,-0.67343 -2.18371,0.67344 -2.85715,0 -1.34687,-1.34687 1.34687,-4.36741 0,-5.71428 -0.67343,-0.67344 -2.1837,0.67343 -2.85714,0 -0.67343,-0.67344 0,-1.90477 0,-2.85715 0,-0.95238 -0.95238,-2.85714 0,-2.85714 0.95238,0 0,1.90476 0,2.85714 0,2.85715 0,5.71429 0,8.57143 0,0.95238 0,1.90476 0,2.85715 0,0.95238 0.95238,2.85714 0,2.85714 -0.95238,0 0,-3.80953 0,-2.85714 0,16.19047 -1.90476,0.95238 2.85714,5.71428 0.67344,0.67344 0,1.90476 0,2.85714 0,5.71429 0,11.42858 0,17.14286"
       id="path3133"
       inkscape:connector-curvature="0" />
    <path
       style="fill:none;stroke:#000000;stroke-width:1px;stroke-linecap:butt;stroke-linejoin:miter;stroke-opacity:1"
       d="m 448.57143,-479.06639 c 5.71428,0 11.42857,0 17.14286,0 0.95238,0 2.85714,-0.95238 2.85714,0 0,0.95238 -3.53058,0.67344 -2.85714,0 3.55264,-3.55264 7.18381,-2.85714 11.42857,-2.85714"
       id="path3135"
       inkscape:connector-curvature="0" />
    <text
       xml:space="preserve"
       style="font-size:40px;font-style:normal;font-weight:normal;line-height:125%;letter-spacing:0px;word-spacing:0px;fill:#000000;fill-opacity:1;stroke:none;font-family:Sans"
       x="611.42859"
       y="-1401.9235"
       id="text3141"
       sodipodi:linespacing="125%"><tspan
         sodipodi:role="line"
         id="tspan3143"
         x="611.42859"
         y="-1401.9235">A</tspan></text>
    <text
       xml:space="preserve"
       style="font-size:40px;font-style:normal;font-weight:normal;line-height:125%;letter-spacing:0px;word-spacing:0px;fill:#000000;fill-opacity:1;stroke:none;font-family:Sans"
       x="468.57144"
       y="-710.49493"
       id="text3145"
       sodipodi:linespacing="125%"><tspan
         sodipodi:role="line"
         id="tspan3147"
         x="468.57144"
         y="-710.49493">B</tspan></text>
  </g>
</svg>
